<?xml version="1.0" encoding="UTF-8" standalone="no"?>
<!-- Generator: Adobe Illustrator 24.0.0, SVG Export Plug-In . SVG Version: 6.00 Build 0)  -->

<svg
   version="1.1"
   id="Layer_1"
   x="0px"
   y="0px"
   viewBox="0 0 375 346.5"
   style="enable-background:new 0 0 375 346.5;"
   xml:space="preserve"
   sodipodi:docname="cardano.svg"
   inkscape:version="1.2 (dc2aedaf03, 2022-05-15)"
   xmlns:inkscape="http://www.inkscape.org/namespaces/inkscape"
   xmlns:sodipodi="http://sodipodi.sourceforge.net/DTD/sodipodi-0.dtd"
   xmlns="http://www.w3.org/2000/svg"
   xmlns:svg="http://www.w3.org/2000/svg"><defs
   id="defs145" /><sodipodi:namedview
   id="namedview143"
   pagecolor="#ffffff"
   bordercolor="#000000"
   borderopacity="0.25"
   inkscape:showpageshadow="2"
   inkscape:pageopacity="0.0"
   inkscape:pagecheckerboard="0"
   inkscape:deskcolor="#d1d1d1"
   showgrid="false"
   inkscape:zoom="1.524412"
   inkscape:cx="263.70823"
   inkscape:cy="214.18094"
   inkscape:window-width="1728"
   inkscape:window-height="992"
   inkscape:window-x="-8"
   inkscape:window-y="-8"
   inkscape:window-maximized="1"
   inkscape:current-layer="Layer_1" />
<style
   type="text/css"
   id="style78">
	.st0{fill:#0033AD;}
</style>
<g
   id="Layer_2_1_">
	<g
   id="Layer_1-2">
		<path
   class="st0"
   d="M102.8,172c-0.8,13.9,9.9,25.8,23.8,26.6c0.5,0,1,0,1.5,0c14,0,25.3-11.3,25.2-25.3c0-14-11.3-25.3-25.3-25.2    C114.6,148.1,103.5,158.6,102.8,172z"
   id="path80" />
		<path
   class="st0"
   d="M8.6,165.5c-4.5-0.3-8.4,3.2-8.6,7.7s3.2,8.4,7.7,8.6c4.5,0.3,8.3-3.2,8.6-7.7    C16.6,169.6,13.1,165.8,8.6,165.5C8.6,165.5,8.6,165.5,8.6,165.5z"
   id="path82" />
		<path
   class="st0"
   d="M101.2,25.4c4-2,5.6-7,3.6-11c-2-4-7-5.6-11-3.6c-4,2-5.6,6.9-3.6,10.9C92.2,25.8,97.1,27.5,101.2,25.4    C101.1,25.4,101.2,25.4,101.2,25.4z"
   id="path84" />
		<path
   class="st0"
   d="M126.8,70.1c6.2-3.1,8.7-10.7,5.6-16.9s-10.7-8.7-16.9-5.6c-6.2,3.1-8.7,10.7-5.6,16.9    C113,70.7,120.6,73.2,126.8,70.1z"
   id="path86" />
		<path
   class="st0"
   d="M40.6,100.8c4.8,3.1,11.2,1.8,14.4-3c3.1-4.8,1.8-11.2-3-14.4c-4.8-3.1-11.2-1.8-14.4,3c0,0,0,0,0,0    C34.4,91.2,35.8,97.7,40.6,100.8z"
   id="path88" />
		<path
   class="st0"
   d="M55.9,161c-7-0.4-12.9,4.9-13.3,11.9s4.9,12.9,11.9,13.3c7,0.4,12.9-4.9,13.3-11.9c0,0,0,0,0,0    C68.2,167.4,62.9,161.4,55.9,161z"
   id="path90" />
		<path
   class="st0"
   d="M42,245.7c-5.1,2.6-7.2,8.8-4.6,14c2.6,5.1,8.8,7.2,14,4.6c5.1-2.6,7.2-8.8,4.6-14c0,0,0,0,0,0    C53.4,245.2,47.1,243.1,42,245.7C42,245.7,42,245.7,42,245.7z"
   id="path92" />
		<path
   class="st0"
   d="M91,134.9c6.9,4.5,16.1,2.6,20.5-4.3c4.5-6.9,2.6-16.1-4.3-20.5c-6.9-4.5-16.1-2.6-20.5,4.3    C82.2,121.2,84.1,130.4,91,134.9C91,134.9,91,134.9,91,134.9z"
   id="path94" />
		<path
   class="st0"
   d="M246.5,69.1c5.8,3.8,13.7,2.2,17.5-3.6s2.2-13.7-3.6-17.5c-5.8-3.8-13.7-2.2-17.5,3.6c0,0,0,0,0,0    C239,57.5,240.6,65.3,246.5,69.1C246.5,69.1,246.5,69.1,246.5,69.1z"
   id="path96" />
		<path
   class="st0"
   d="M272.3,24.6c3.8,2.5,8.8,1.4,11.3-2.4s1.4-8.8-2.4-11.3c-3.8-2.5-8.8-1.4-11.3,2.3    C267.5,17,268.6,22.1,272.3,24.6C272.3,24.6,272.3,24.6,272.3,24.6z"
   id="path98" />
		<path
   class="st0"
   d="M248.4,147.9c-13.9-0.8-25.9,9.9-26.6,23.8c-0.8,13.9,9.9,25.9,23.8,26.6c0.5,0,1,0,1.4,0    c13.9,0,25.2-11.3,25.2-25.3C272.3,159.7,261.8,148.6,248.4,147.9L248.4,147.9z"
   id="path100" />
		<path
   class="st0"
   d="M135.1,133.1c4.3,8.5,13,13.9,22.6,13.9c13.9,0,25.2-11.3,25.2-25.3c0-3.9-0.9-7.8-2.7-11.4    c-6.3-12.5-21.5-17.5-33.9-11.2C133.8,105.5,128.8,120.7,135.1,133.1L135.1,133.1z"
   id="path102" />
		<path
   class="st0"
   d="M333,100.8c5.1-2.6,7.1-8.9,4.5-14c-2.6-5.1-8.9-7.1-14-4.5c-5.1,2.6-7.1,8.8-4.6,13.9    C321.6,101.3,327.8,103.4,333,100.8C333,100.8,333,100.8,333,100.8z"
   id="path104" />
		<path
   class="st0"
   d="M269,108.8c-7.3,3.7-10.3,12.6-6.6,19.9c3.7,7.3,12.6,10.3,19.9,6.6c7.3-3.7,10.3-12.6,6.6-19.9    C285.2,108.1,276.3,105.2,269,108.8z"
   id="path106" />
		<path
   class="st0"
   d="M186.5,20.8c5.7,0.3,10.6-4.1,11-9.8s-4.1-10.6-9.8-11c-5.7-0.3-10.6,4-11,9.7    C176.4,15.5,180.8,20.4,186.5,20.8C186.5,20.8,186.5,20.8,186.5,20.8z"
   id="path108" />
		<path
   class="st0"
   d="M186.4,86.1c8.2,0.5,15.2-5.8,15.6-14c0.5-8.2-5.8-15.2-14-15.6c-8.2-0.5-15.2,5.8-15.6,14    C172,78.7,178.2,85.7,186.4,86.1C186.4,86.1,186.4,86.1,186.4,86.1z"
   id="path110" />
		<path
   class="st0"
   d="M106,237.7c7.3-3.7,10.3-12.6,6.6-19.9c-3.7-7.3-12.6-10.3-19.9-6.6c-7.3,3.7-10.3,12.6-6.6,19.9    C89.8,238.4,98.7,241.4,106,237.7z"
   id="path112" />
		<path
   class="st0"
   d="M196,107.8c-7.6,11.7-4.4,27.3,7.3,34.9c11.7,7.6,27.3,4.4,34.9-7.3c7.6-11.7,4.4-27.3-7.3-34.9    c-4.1-2.7-8.9-4.1-13.8-4.1C208.6,96.4,200.7,100.7,196,107.8z"
   id="path114" />
		<path
   class="st0"
   d="M239.9,213.4c-6.3-12.5-21.5-17.5-33.9-11.2c-12.5,6.3-17.5,21.5-11.2,33.9c6.3,12.5,21.5,17.5,33.9,11.2    c0,0,0,0,0,0c12.4-6.2,17.5-21.2,11.3-33.7C240,213.5,240,213.5,239.9,213.4z"
   id="path116" />
		<path
   class="st0"
   d="M284,211.6c-6.9-4.5-16.1-2.6-20.5,4.3c-4.5,6.9-2.6,16.1,4.3,20.5c6.9,4.5,16.1,2.6,20.5-4.3    C292.8,225.3,290.9,216.1,284,211.6C284,211.6,284,211.6,284,211.6z"
   id="path118" />
		<path
   class="st0"
   d="M332.4,173.7c0.4-7-4.9-12.9-11.9-13.3c-7-0.4-12.9,4.9-13.3,11.9c-0.4,7,4.9,12.9,11.9,13.3c0,0,0,0,0,0    C326,186,332,180.6,332.4,173.7z"
   id="path120" />
		<path
   class="st0"
   d="M367.3,164.7c-4.5-0.3-8.4,3.2-8.6,7.7s3.2,8.4,7.7,8.6c4.5,0.3,8.3-3.2,8.6-7.7    C375.2,168.8,371.8,165,367.3,164.7z"
   id="path122" />
		<path
   class="st0"
   d="M334.4,245.7c-4.8-3.1-11.2-1.8-14.4,3c-3.1,4.8-1.8,11.2,3,14.4c4.8,3.1,11.2,1.8,14.4-3    C340.6,255.3,339.2,248.8,334.4,245.7C334.4,245.7,334.4,245.7,334.4,245.7z"
   id="path124" />
		<path
   class="st0"
   d="M102.6,321.9c-3.8-2.5-8.8-1.4-11.3,2.3c-2.5,3.8-1.4,8.8,2.3,11.3c3.8,2.5,8.8,1.4,11.3-2.3c0,0,0,0,0,0    C107.5,329.5,106.4,324.4,102.6,321.9z"
   id="path126" />
		<path
   class="st0"
   d="M273.8,321.1c-4,2-5.6,7-3.6,11c2,4,7,5.6,11,3.6c4-2,5.6-6.9,3.6-10.9C282.8,320.7,277.9,319,273.8,321.1    C273.9,321.1,273.8,321.1,273.8,321.1z"
   id="path128" />
		<path
   class="st0"
   d="M179,238.7c7.6-11.7,4.4-27.3-7.3-35c-11.7-7.6-27.3-4.4-35,7.3s-4.4,27.3,7.3,35c4.1,2.7,8.9,4.1,13.8,4.1    C166.4,250.2,174.3,245.9,179,238.7z"
   id="path130" />
		<path
   class="st0"
   d="M128.5,277.4c-5.8-3.8-13.7-2.2-17.5,3.6c-3.8,5.8-2.2,13.7,3.6,17.5s13.7,2.2,17.5-3.6c0,0,0,0,0,0    C136,289.1,134.4,281.2,128.5,277.4z"
   id="path132" />
		<path
   class="st0"
   d="M187.4,325.7c-5.7-0.3-10.6,4.1-11,9.8s4.1,10.6,9.8,11c5.7,0.3,10.6-4,11-9.7    C197.5,331,193.1,326.1,187.4,325.7C187.4,325.7,187.4,325.7,187.4,325.7z"
   id="path134" />
		<path
   class="st0"
   d="M187.5,260.4c-8.2-0.5-15.2,5.8-15.6,14c-0.5,8.2,5.8,15.2,14,15.6c8.2,0.4,15.2-5.8,15.6-14    C202,267.9,195.7,260.8,187.5,260.4C187.5,260.4,187.5,260.4,187.5,260.4z"
   id="path136" />
		<path
   class="st0"
   d="M248.2,276.4c-6.2,3.2-8.7,10.8-5.5,17c3.2,6.2,10.8,8.7,17,5.5c6.2-3.1,8.7-10.7,5.6-16.9    C262.1,275.8,254.5,273.2,248.2,276.4C248.2,276.4,248.2,276.4,248.2,276.4z"
   id="path138" />
	</g>
</g>
<path
   style="fill:#800080;stroke-width:0.463855"
   d="m 121.81217,197.5922 c -12.64666,-3.4724 -20.53579,-15.69096 -18.3807,-28.46777 1.66017,-9.84256 9.72723,-18.114 19.72214,-20.22177 4.06618,-0.8575 5.66878,-0.858 9.74097,-0.003 14.98468,3.14607 23.77803,18.67773 18.6199,32.88823 -2.90598,8.0059 -10.11047,14.30727 -18.29484,16.0015 -3.24244,0.6712 -8.58087,0.57894 -11.40747,-0.19716 z"
   id="path320" /><path
   style="fill:#800080;stroke-width:0.463855"
   d="m 152.27248,146.10915 c -10.64512,-2.31304 -18.82426,-11.94809 -19.4868,-22.95554 -0.70968,-11.79044 7.27764,-22.75214 18.73007,-25.704918 14.18972,-3.658528 28.76422,6.202298 30.8734,20.888328 1.09972,7.65726 -1.50326,15.10587 -7.31999,20.9467 -6.26856,6.29451 -14.24672,8.68321 -22.79668,6.82543 z"
   id="path322" /><path
   style="fill:#800080;stroke-width:0.463855"
   d="m 214.53313,146.31206 c -5.77808,-0.56832 -10.86759,-3.05214 -15.13,-7.38386 -7.6624,-7.787 -9.37264,-18.44072 -4.53538,-28.2525 5.06947,-10.28278 16.24114,-15.765479 27.41213,-13.453007 6.44258,1.333659 13.26256,6.320007 16.52709,12.083607 1.75898,3.1055 3.32556,8.86381 3.32556,12.22382 0,3.17782 -1.52001,8.99721 -3.12089,11.94841 -4.72123,8.70352 -14.47541,13.81741 -24.47851,12.83353 z"
   id="path324" /><path
   style="fill:#800080;stroke-width:0.463855"
   d="m 243.22105,197.78042 c -9.76337,-1.59047 -17.87644,-8.89064 -20.32405,-18.28765 -0.8108,-3.11285 -0.91483,-9.19929 -0.20956,-12.25999 2.46148,-10.68226 13.1285,-19.03097 24.31557,-19.03097 6.84471,0 12.29847,2.3174 17.43885,7.4101 3.77489,3.73987 5.82576,7.30077 6.91929,12.01383 0.79093,3.4089 0.34872,10.20939 -0.89114,13.70429 -3.91825,11.04468 -15.9274,18.29469 -27.24896,16.45039 z"
   id="path326" /><path
   style="fill:#800080;stroke-width:0.463855"
   d="m 212.67771,249.34292 c -5.01964,-1.09098 -10.41053,-4.11662 -13.76856,-7.7276 -3.89796,-4.1916 -6.40915,-10.69446 -6.40915,-16.59685 0,-12.05924 7.84969,-21.86681 19.74383,-24.66834 16.55537,-3.89944 32.66594,11.49963 29.71285,28.40062 -2.05886,11.78321 -11.65559,20.2923 -23.48078,20.81961 -2.16852,0.0967 -4.77771,-0.006 -5.79819,-0.22744 z"
   id="path328" /><path
   style="fill:#800080;stroke-width:0.463855"
   d="m 151.73125,249.05259 c -3.59036,-0.96553 -5.96365,-2.11637 -8.81257,-4.27331 -9.7456,-7.37848 -12.8012,-20.04831 -7.45441,-30.90917 4.90166,-9.9567 16.3598,-15.7218 26.88513,-13.5271 16.67881,3.47779 25.23209,20.92474 17.63567,35.97317 -3.01439,5.97147 -9.36191,11.02251 -16.03644,12.76101 -3.37039,0.87788 -8.90295,0.86674 -12.21738,-0.0246 z"
   id="path330" /><path
   style="fill:#ff00ff;stroke-width:0.463855"
   d="m 94.570271,136.29636 c -3.602464,-1.20274 -6.461745,-3.72486 -8.293163,-7.31524 -1.41099,-2.76617 -1.621851,-3.6139 -1.610944,-6.47652 0.02144,-5.62662 2.745917,-10.14554 7.735903,-12.83107 2.635129,-1.41818 3.282502,-1.57017 6.631066,-1.55682 4.503947,0.018 7.266557,1.1721 10.486257,4.38084 7.27378,7.24901 4.34121,19.96557 -5.44898,23.62855 -2.97045,1.11138 -6.492234,1.1745 -9.500139,0.17026 z"
   id="path455" /><path
   style="fill:#ff00ff;stroke-width:0.463855"
   d="M 184.31005,85.583978 C 179.9647,84.675003 175.79804,81.251856 173.86161,77 c -1.59114,-3.493693 -1.50282,-8.406865 0.21395,-11.902782 1.41715,-2.88577 3.85631,-5.343533 6.92312,-6.97591 1.65113,-0.878851 2.70715,-1.060277 6.16698,-1.059494 3.62497,8.21e-4 4.48011,0.16308 6.49398,1.2322 2.98314,1.583686 5.4761,4.18554 6.81204,7.1096 1.52653,3.341225 1.48985,8.83423 -0.0804,12.04067 -2.91819,5.958875 -9.81598,9.450274 -16.08121,8.139694 z"
   id="path457" /><path
   style="fill:#ff00ff;stroke-width:0.463855"
   d="m 270.98664,135.75514 c -3.06628,-1.09452 -5.45676,-2.97978 -7.3883,-5.82679 -2.62355,-3.86699 -3.18816,-8.527 -1.55418,-12.82729 1.74822,-4.60093 5.06951,-7.60732 9.98175,-9.03535 4.82986,-1.40408 9.55071,-0.12129 13.64394,3.70745 7.37387,6.89739 5.30085,19.0539 -4.00004,23.45682 -3.05218,1.44487 -7.49484,1.66326 -10.68317,0.52516 z"
   id="path459" /><path
   style="fill:#ff00ff;stroke-width:0.463855"
   d="m 315.76518,184.64725 c -4.93811,-1.76211 -8.22491,-6.4153 -8.21432,-11.62918 0.0206,-10.1324 11.55895,-15.9261 19.56152,-9.82234 6.0705,4.63013 6.67977,13.06533 1.3301,18.415 -3.37533,3.37533 -8.37311,4.57242 -12.6773,3.03652 z"
   id="path461" /><path
   style="fill:#ff00ff;stroke-width:0.463855"
   d="m 272.0512,238.0328 c -2.94087,-0.97452 -4.49731,-1.94237 -6.58774,-4.0965 -6.89671,-7.10686 -4.74164,-18.69766 4.30423,-23.14977 3.09412,-1.52283 8.67727,-1.58198 11.84933,-0.12553 2.93679,1.34842 5.80299,4.04812 7.28071,6.85776 1.07202,2.03828 1.23542,2.90048 1.23624,6.52341 0.001,4.68213 -0.73047,6.6213 -3.76483,9.97998 -3.32418,3.67947 -9.82344,5.5 -14.31794,4.01065 z"
   id="path463" /><path
   style="fill:#ff00ff;stroke-width:0.463855"
   d="m 248.85843,298.79115 c -8.23095,-3.84108 -9.67379,-14.90908 -2.6936,-20.66273 7.9156,-6.52471 20.10017,-0.79934 20.08365,9.43705 -0.0145,8.96331 -9.33926,14.98268 -17.39005,11.22568 z"
   id="path465" /><path
   style="fill:#ff00ff;stroke-width:0.463855"
   d="m 182.75904,289.27119 c -4.16258,-1.36858 -7.64416,-4.44766 -9.44146,-8.34995 -1.50625,-3.27036 -1.36662,-8.74996 0.30541,-11.98555 2.73019,-5.2833 7.43801,-8.2254 13.10392,-8.18915 5.70799,0.0365 10.34355,2.9446 13.05372,8.18915 1.04185,2.01612 1.25462,3.03869 1.27556,6.13058 0.0213,3.14971 -0.16984,4.10787 -1.26428,6.33651 -1.42891,2.90973 -3.89677,5.38365 -6.92312,6.94012 -2.15423,1.10794 -7.94587,1.63973 -10.10975,0.92829 z"
   id="path467" /><path
   style="fill:#ff00ff;stroke-width:0.463855"
   d="m 117.15685,299.41045 c -8.0139,-3.12904 -10.39675,-13.08722 -4.73439,-19.78553 3.24118,-3.83417 9.8198,-5.03527 14.58175,-2.66229 4.06548,2.02592 7.05001,6.6232 7.05001,10.85966 0,2.70997 -1.45602,6.13877 -3.56359,8.39192 -3.59745,3.84598 -8.59908,5.04491 -13.33378,3.19624 z"
   id="path469" /><path
   style="fill:#ff00ff;stroke-width:0.463855"
   d="m 96.19558,238.7045 c -4.312944,-1.11076 -7.828552,-3.93121 -10.011019,-8.03149 -0.878851,-1.65113 -1.060277,-2.70716 -1.059494,-6.16699 8.23e-4,-3.63445 0.162625,-4.48223 1.250321,-6.55119 2.69007,-5.1169 8.275451,-8.32766 13.817382,-7.94292 12.11859,0.8413 17.97851,15.001 9.91822,23.96598 -3.51226,3.90648 -9.37181,5.89678 -13.91541,4.72661 z"
   id="path471" /><path
   style="fill:#ff00ff;stroke-width:0.463855"
   d="m 50.328313,184.90792 c -4.573294,-2.08476 -7.326456,-6.18338 -7.363578,-10.96214 -0.01189,-1.53072 0.258703,-3.60051 0.601319,-4.59952 0.781565,-2.27892 3.826697,-5.62228 6.243975,-6.85549 9.117911,-4.65161 20.101853,4.38352 17.250964,14.19023 -1.631224,5.61122 -6.165367,9.10156 -11.799203,9.08291 -1.971883,-0.007 -3.744844,-0.31415 -4.933477,-0.85599 z"
   id="path473" /><path
   style="fill:#ff00ff;stroke-width:0.463855"
   d="m 364.12651,180.337 c -6.28193,-2.36048 -6.7831,-11.56187 -0.78782,-14.46413 2.4596,-1.19067 4.15269,-1.21436 6.62247,-0.0926 3.28426,1.49164 5.27862,5.18635 4.63923,8.59458 -0.35373,1.88554 -2.52913,4.611 -4.48958,5.62479 -1.27873,0.66125 -4.62095,0.84969 -5.9843,0.3374 z"
   id="path475" /><path
   style="fill:#ff0000;stroke-width:0.463855"
   d="m 94.943692,25.535792 c -2.311444,-0.824364 -3.50304,-1.924567 -4.547208,-4.198443 -1.080897,-2.353859 -1.077764,-4.141464 0.01146,-6.539865 2.136255,-4.703901 8.137521,-6.0037238 12.146086,-2.630738 4.49381,3.781293 3.38798,10.617974 -2.12933,13.164379 -2.197188,1.014067 -3.115383,1.048354 -5.481006,0.204667 z"
   id="path546" /><path
   style="fill:#ff0000;stroke-width:0.463855"
   d="m 117.07031,70.479992 c -6.1248,-2.263038 -9.4488,-9.160892 -7.51878,-15.602721 1.29192,-4.312067 6.68495,-8.24635 11.31614,-8.25527 4.90997,-0.0095 8.75386,2.262536 11.0901,6.554992 3.26147,5.992396 0.79581,13.510519 -5.48116,16.712791 -2.45892,1.25445 -6.861,1.530662 -9.4063,0.590208 z"
   id="path548" /><path
   style="fill:#ff0000;stroke-width:0.463855"
   d="m 184.0337,19.979759 c -7.5945,-2.710206 -9.43471,-12.3020394 -3.32618,-17.3372063 6.16316,-5.0801947 15.68547,-1.1900111 16.33766,6.6744784 0.28055,3.3830599 -0.80182,6.1102859 -3.36136,8.4695939 -2.9396,2.709623 -6.15508,3.44039 -9.65012,2.193134 z"
   id="path550" /><path
   style="fill:#ff0000;stroke-width:0.463855"
   d="m 273.31434,24.761256 c -3.96343,-1.961856 -5.59654,-7.592472 -3.22348,-11.11385 1.64358,-2.438907 3.81537,-3.6745144 6.4586,-3.6745144 2.57912,0 4.22793,0.7201644 6.01162,2.6257574 3.63204,3.880269 2.33453,10.030057 -2.58787,12.265703 -2.47697,1.12498 -4.23278,1.097795 -6.65887,-0.103096 z"
   id="path552" /><path
   style="fill:#ff0000;stroke-width:0.463855"
   d="m 249.27017,70.122843 c -2.4453,-0.92232 -4.62314,-2.69311 -6.25718,-5.087665 -1.35894,-1.991432 -1.5864,-2.740843 -1.73699,-5.722968 -0.15073,-2.98492 -0.0121,-3.76101 1.06568,-5.963809 4.51052,-9.219175 17.44167,-9.45425 22.06558,-0.401129 1.54734,3.029538 1.60994,8.288145 0.13171,11.064776 -2.23869,4.205038 -6.39944,6.7223 -11.04198,6.680427 -1.53072,-0.01381 -3.43279,-0.27014 -4.22682,-0.569632 z"
   id="path554" /><path
   style="fill:#ff0000;stroke-width:0.463855"
   d="m 325.55153,101.29162 c -2.22975,-0.62468 -5.28159,-3.27597 -6.48409,-5.633055 -1.4184,-2.780308 -1.07459,-7.036788 0.78512,-9.719805 1.59413,-2.299866 5.53773,-4.532133 8.00662,-4.532133 6.57991,0 11.60611,5.914999 10.24553,12.057286 -1.27627,5.761703 -7.05828,9.367157 -12.55318,7.827707 z"
   id="path556" /><path
   style="fill:#ff0000;stroke-width:0.463855"
   d="m 325.5732,264.01611 c -2.77358,-1.03506 -4.44061,-2.50985 -5.70497,-5.0471 -2.80995,-5.63882 -0.52593,-11.55444 5.42045,-14.039 7.22562,-3.01905 15.41638,4.40584 13.15379,11.92386 -0.35459,1.17821 -1.1008,2.78271 -1.65824,3.56557 -2.26718,3.18396 -7.67123,4.91766 -11.21103,3.59667 z"
   id="path558" /><path
   style="fill:#ff0000;stroke-width:0.463855"
   d="m 275.54707,335.9825 c -3.46559,-0.99433 -6.0267,-4.2125 -6.0267,-7.57286 0,-5.17936 5.86526,-9.35316 10.45103,-7.43711 3.49381,1.45981 5.29968,4.07582 5.29968,7.67717 0,2.29958 -0.88724,4.1236 -2.78087,5.71698 -1.18379,0.99609 -4.23891,2.26251 -5.10467,2.11601 -0.12756,-0.0216 -0.95487,-0.24667 -1.83847,-0.50019 z"
   id="path560" /><path
   style="fill:#ff0000;stroke-width:0.463855"
   d="m 182.23219,344.97232 c -4.74699,-2.47203 -6.78861,-8.12947 -4.63788,-12.85184 1.12422,-2.46844 4.18582,-5.15989 6.61299,-5.81346 4.20274,-1.13168 9.02789,0.95359 11.34147,4.90143 3.91165,6.67472 -1.20834,15.05962 -9.1957,15.05962 -0.89797,0 -2.75237,-0.58309 -4.12088,-1.29575 z"
   id="path562" /><path
   style="fill:#ff0000;stroke-width:0.463855"
   d="m 94.835437,335.90036 c -5.979442,-2.71314 -5.993626,-11.54891 -0.02289,-14.26049 2.519486,-1.14421 4.286809,-1.10259 6.785723,0.15983 5.34099,2.69818 5.94406,9.47548 1.16737,13.11884 -2.03077,1.54894 -5.683617,2.00119 -7.9302,0.98182 z"
   id="path564" /><path
   style="fill:#ff0000;stroke-width:0.463855"
   d="m 42.32757,264.1172 c -8.530246,-4.2224 -7.011414,-16.89626 2.273866,-18.97421 9.891968,-2.21373 16.308177,10.22786 8.900383,17.25861 -2.915461,2.76707 -7.597734,3.48595 -11.174249,1.7156 z"
   id="path566" /><path
   style="fill:#ff0000;stroke-width:0.463855"
   d="m 4.8245922,180.71555 c -7.0131943,-3.18501 -5.37461797,-13.90023 2.2571739,-14.76044 2.7866226,-0.31409 5.0980599,0.51827 6.7897869,2.44504 3.677891,4.18889 2.500059,10.06205 -2.470637,12.31962 -2.3952423,1.08787 -4.1741297,1.08673 -6.5763238,-0.004 z"
   id="path568" /><path
   style="fill:#0000ff;stroke-width:0.463855"
   d="m 43.085244,101.64018 c -2.741488,-0.9797 -4.433208,-2.468474 -5.704969,-5.020565 -2.087981,-4.190033 -1.304168,-8.587859 2.108486,-11.830308 1.63914,-1.557389 4.804038,-2.918825 6.78532,-2.918825 5.36383,0 10.033811,4.749572 10.033811,10.204819 0,6.900471 -6.837648,11.846629 -13.222648,9.564879 z"
   id="path570" /><path
   style="fill:#0000ff;stroke-width:0.655991"
   d="m 115.78235,69.29183 c -4.4007,-2.733164 -6.23192,-6.018627 -6.23192,-11.18094 0,-2.425005 0.43415,-3.738142 1.90903,-5.774157 2.00347,-2.765708 6.57014,-5.435967 9.28593,-5.429745 7.03877,0.01613 13.12366,6.797953 12.11777,13.505682 -0.52593,3.507214 -3.4439,7.587839 -6.44387,9.011416 -3.10368,1.472793 -8.15374,1.410002 -10.63694,-0.132256 z"
   id="path641" /><path
   style="fill:#0000ff;stroke-width:0.655991"
   d="m 94.46265,24.762627 c -1.281589,-0.640226 -2.859386,-2.199234 -3.571225,-3.528696 -1.128797,-2.108197 -1.181198,-2.695676 -0.456261,-5.1153 1.914042,-6.3885021 10.495536,-7.2449325 13.543096,-1.351597 1.3157,2.544279 1.23087,4.493599 -0.30518,7.012807 -1.24057,2.034592 -4.319759,4.132852 -6.061898,4.130769 -0.46891,-5.6e-4 -1.88575,-0.517153 -3.148532,-1.147983 z"
   id="path643" /><path
   style="fill:#0000ff;stroke-width:0.655991"
   d="m 182.35872,18.531735 c -3.35175,-2.281182 -4.80438,-4.655595 -4.80054,-7.846772 0.007,-5.6489688 3.96828,-9.70322381 9.47658,-9.6985249 5.05495,0.004312 8.8919,3.3711986 9.56556,8.3936723 0.41721,3.1105756 -0.81884,5.7196526 -4.05639,8.5622536 -2.96933,2.607112 -6.88741,2.833833 -10.18521,0.589371 z"
   id="path645" /><path
   style="fill:#0000ff;stroke-width:0.655991"
   d="m 249.52749,69.80764 c -3.22979,-0.936639 -7.27934,-5.789576 -7.8157,-9.366237 -1.42545,-9.505633 8.72289,-16.655125 17.3754,-12.240943 3.6946,1.884846 5.48452,4.754107 5.81488,9.32134 0.33179,4.586983 -0.58104,7.075315 -3.55271,9.684473 -3.34933,2.940755 -7.50121,3.854362 -11.82187,2.601367 z"
   id="path647" /><path
   style="fill:#0000ff;stroke-width:0.655991"
   d="m 273.47808,24.273681 c -3.8194,-2.075951 -5.14261,-7.71392 -2.57618,-10.976608 4.38911,-5.5798534 13.14204,-2.560112 13.14204,4.533975 0,5.546645 -5.75644,9.056691 -10.56586,6.442633 z"
   id="path649" /><path
   style="fill:#0000ff;stroke-width:0.655991"
   d="m 325.02269,100.72714 c -0.73295,-0.29714 -2.43033,-1.755253 -3.77194,-3.240261 -2.09469,-2.318561 -2.43896,-3.139961 -2.43685,-5.814079 0.003,-4.122717 1.73407,-6.831367 5.54369,-8.675571 3.43353,-1.662145 5.75153,-1.498131 9.23256,0.653267 4.2126,2.60353 5.48796,9.313912 2.53041,13.313856 -2.58264,3.492878 -7.58223,5.188018 -11.09787,3.762788 z"
   id="path651" /><path
   style="fill:#0000ff;stroke-width:0.655991"
   d="m 361.51879,177.75063 c -3.64127,-4.14718 -2.24496,-9.68426 2.99414,-11.8733 1.8636,-0.77866 2.50012,-0.7794 4.3178,-0.005 5.73432,2.4429 7.13626,7.75328 3.13636,11.88013 -1.94319,2.00486 -2.66113,2.31702 -5.32906,2.31702 -2.70826,0 -3.33096,-0.28206 -5.11924,-2.3188 z"
   id="path653" /><path
   style="fill:#0000ff;stroke-width:0.655991"
   d="m 324.22745,262.95735 c -4.96147,-2.44591 -6.64169,-9.77809 -3.25748,-14.21502 1.04521,-1.37034 2.95314,-2.75835 4.71809,-3.43239 2.77533,-1.05991 3.14418,-1.06258 5.81636,-0.0421 6.22506,2.37737 8.53899,7.90608 5.66593,13.53773 -2.32301,4.55349 -8.26295,6.45886 -12.9429,4.15174 z"
   id="path655" /><path
   style="fill:#0000ff;stroke-width:0.655991"
   d="m 275.18807,335.42967 c -2.19874,-1.21608 -4.37042,-3.41362 -5.00922,-5.06888 -1.52111,-3.94149 2.73897,-9.25338 7.42112,-9.25338 2.12682,0 3.07225,0.43303 4.86959,2.23037 4.00961,4.00961 2.79678,9.24051 -2.81043,12.12127 -1.77147,0.91011 -2.78444,0.90346 -4.47106,-0.0294 z"
   id="path657" /><path
   style="fill:#0000ff;stroke-width:0.655991"
   d="m 183.16744,344.94551 c -4.31435,-2.12651 -6.80581,-6.96147 -5.75163,-11.16169 0.57094,-2.2748 4.85534,-6.5592 7.13014,-7.13014 6.46791,-1.62334 13.32609,5.0972 11.62449,11.3912 -0.94411,3.49211 -2.46342,5.34306 -5.52808,6.73478 -3.30687,1.5017 -4.70189,1.53265 -7.47492,0.16585 z"
   id="path659" /><path
   style="fill:#0000ff;stroke-width:0.655991"
   d="m 94.384899,335.20919 c -2.307643,-1.25407 -4.10732,-5.14825 -3.585355,-7.75807 0.538903,-2.69452 3.386966,-5.57646 5.994287,-6.0656 2.502536,-0.46948 5.469579,0.88654 7.450759,3.4052 4.55049,5.78501 -3.23929,14.01626 -9.859691,10.41847 z"
   id="path661" /><path
   style="fill:#0000ff;stroke-width:0.655991"
   d="m 41.976729,263.21624 c -3.40829,-2.31966 -4.694595,-4.49721 -4.694595,-7.94734 0,-5.66772 3.985496,-9.74489 9.645357,-9.86722 4.668129,-0.1009 8.759051,3.82435 9.258722,8.88375 0.746411,7.55776 -8.077894,13.10393 -14.209484,8.93081 z"
   id="path663" /><path
   style="fill:#0000ff;stroke-width:0.655991"
   d="m 5.5759203,180.46137 c -4.2337387,-1.86881 -5.97689342,-6.28504 -3.9941937,-10.11916 2.8031478,-5.42069 10.5293814,-5.27367 13.1506464,0.25023 1.996697,4.20773 0.177534,8.33852 -4.443226,10.08928 -2.2574949,0.85534 -2.2785122,0.85436 -4.7132267,-0.22035 z"
   id="path665" /><path
   style="fill:#ff0000;stroke-width:0.655991"
   d="m 117.85212,299.15885 c -3.24819,-1.15814 -5.54502,-3.30054 -7.06183,-6.58703 -1.53504,-3.32597 -1.53193,-5.85332 0.0114,-9.25163 4.34467,-9.56684 17.02429,-9.60841 21.64129,-0.071 1.78478,3.68686 1.73823,5.39243 -0.25641,9.39514 -1.75801,3.52787 -3.9368,5.47955 -7.48221,6.7023 -2.78583,0.96079 -3.70113,0.9357 -6.85221,-0.18782 z"
   id="path736" /><path
   style="fill:#ff0000;stroke-width:0.655991"
   d="m 93.315746,237.07208 c -5.459604,-2.70246 -8.393619,-7.84763 -7.856007,-13.7765 0.566989,-6.25286 5.221756,-11.40907 11.477128,-12.71353 8.366963,-1.7448 17.220743,6.22235 16.400553,14.75819 -0.93212,9.70075 -11.55266,15.92393 -20.021674,11.73184 z"
   id="path738" /><path
   style="fill:#ff0000;stroke-width:0.655991"
   d="m 50.184745,184.2839 c -2.957808,-1.54224 -4.325641,-2.95816 -5.655622,-5.85445 -2.568059,-5.59244 -0.822377,-11.14405 4.662529,-14.82776 8.563523,-5.75133 19.426631,2.24176 17.439841,12.83226 -0.535592,2.85496 -3.852893,6.79039 -6.74103,7.99713 -2.831065,1.18289 -7.284338,1.11537 -9.705718,-0.14718 z"
   id="path740" /><path
   style="fill:#ff0000;stroke-width:0.655991"
   d="m 94.790646,135.98256 c -3.128427,-1.09355 -6.063736,-3.60785 -7.93026,-6.79283 -1.510998,-2.57833 -1.695851,-3.50981 -1.474374,-7.42942 0.296043,-5.23923 1.965311,-8.24653 6.124681,-11.03405 3.049779,-2.04389 8.680047,-2.75258 12.321227,-1.55088 2.67242,0.88198 6.5588,4.45156 8.11939,7.45752 1.56239,3.00946 1.41657,8.67413 -0.30999,12.04181 -3.22085,6.28231 -10.61311,9.4882 -16.850674,7.30785 z"
   id="path742" /><path
   style="fill:#ff0000;stroke-width:0.655991"
   d="m 182.0374,84.379462 c -3.09249,-1.412498 -6.42018,-4.661958 -7.84148,-7.657128 -2.34159,-4.934541 -0.62894,-11.973884 3.87543,-15.928773 3.16078,-2.775202 4.85409,-3.394381 9.28281,-3.394381 4.35095,0 7.88626,1.647046 10.59878,4.9378 4.89174,5.934532 4.47215,13.320495 -1.06178,18.690246 -4.61902,4.48198 -9.81365,5.654319 -14.85376,3.352236 z"
   id="path744" /><path
   style="fill:#ff0000;stroke-width:0.655991"
   d="m 269.77722,134.73754 c -5.03092,-2.49027 -8.04798,-7.32889 -8.02255,-12.86621 0.0354,-7.69944 6.47157,-13.96087 14.35056,-13.96087 5.08417,0 11.13947,4.66391 12.88726,9.92601 3.77018,11.35095 -8.54487,22.18283 -19.21527,16.90107 z"
   id="path746" /><path
   style="fill:#ff0000;stroke-width:0.655991"
   d="m 314.33734,183.55815 c -4.56165,-2.2479 -7.36689,-8.33311 -6.06696,-13.16068 1.38246,-5.13404 6.58035,-9.35177 11.52505,-9.35177 4.7178,0 9.87469,3.99224 11.49372,8.89793 2.27629,6.89724 -3.83348,14.73715 -11.45815,14.70279 -1.82354,-0.008 -4.29568,-0.49794 -5.49366,-1.08827 z"
   id="path748" /><path
   style="fill:#ff0000;stroke-width:0.655991"
   d="m 271.94605,237.48895 c -7.57908,-2.74439 -11.86863,-10.70595 -9.55131,-17.72752 1.02402,-3.10279 4.91497,-7.47169 7.68833,-8.63273 2.43042,-1.01747 8.53153,-1.16961 10.89334,-0.27166 2.62011,0.99617 6.46567,4.75943 7.74804,7.58221 2.24429,4.94021 1.19922,11.00409 -2.58334,14.98949 -3.764,3.96586 -9.73726,5.67439 -14.19506,4.06021 z"
   id="path750" /><path
   style="fill:#ff0000;stroke-width:0.655991"
   d="m 248.94844,298.40474 c -3.07713,-1.68431 -4.35397,-3.00152 -5.65416,-5.83292 -2.35117,-5.12012 -0.8328,-11.02947 3.72772,-14.50795 2.15955,-1.64716 3.04494,-1.89182 6.84637,-1.89182 3.79507,0 4.68841,0.24587 6.83082,1.87996 3.52804,2.69097 4.97166,5.38464 4.97456,9.28212 0.003,3.98003 -1.54582,7.11184 -4.8326,9.77206 -2.9836,2.41482 -8.71085,3.04018 -11.89271,1.29855 z"
   id="path752" /><path
   style="fill:#800080;stroke-width:0.655991"
   d="m 180.72542,287.93436 c -8.45568,-4.38872 -10.71999,-14.36533 -4.86996,-21.45721 3.8048,-4.61248 10.5638,-6.47508 16.0218,-4.41517 7.06019,2.6646 10.96431,12.36775 7.60137,18.89214 -1.54217,2.99196 -5.00951,6.38209 -7.48008,7.31353 -2.72744,1.02828 -9.00754,0.84261 -11.27313,-0.33329 z"
   id="path754" /><path
   style="fill:#ff00ff;stroke-width:0.655991"
   d="m 119.12334,196.19521 c -6.87096,-2.89247 -11.5811,-7.75412 -14.1727,-14.62861 -2.06797,-5.4855 -1.64377,-13.41245 1.00434,-18.76794 4.86801,-9.84497 16.7462,-15.88677 26.64672,-13.55377 10.46912,2.46699 17.56378,9.77309 19.61508,20.19967 1.50993,7.67483 -1.40154,16.02417 -7.54596,21.63983 -5.25381,4.80168 -8.6945,6.22107 -15.76866,6.50504 -5.13719,0.20622 -6.40714,0.0252 -9.77882,-1.39422 z"
   id="path756" /><path
   style="fill:#ff00ff;stroke-width:0.655991"
   d="m 153.11286,145.97073 c -7.29147,-1.53495 -14.62699,-7.40013 -17.8456,-14.26864 -1.53692,-3.27978 -1.77317,-4.61421 -1.77317,-10.01583 0,-5.40161 0.23625,-6.73605 1.77317,-10.01583 2.16766,-4.62577 7.59902,-10.17405 11.94572,-12.202873 12.38665,-5.781456 26.78699,-0.346814 32.79561,12.376963 1.7591,3.72503 2.01358,4.97269 2.00744,9.84174 -0.006,4.65716 -0.29609,6.19772 -1.76131,9.3496 -4.92316,10.59039 -16.78201,17.11575 -27.14186,14.93487 z"
   id="path758" /><path
   style="fill:#ff00ff;stroke-width:0.655991"
   d="m 209.13851,144.73296 c -11.6353,-4.69545 -18.23967,-15.50462 -16.23338,-26.56867 2.46741,-13.60694 15.27416,-23.127331 27.95685,-20.782807 5.47896,1.012841 9.22738,3.073357 13.71232,7.537707 3.28341,3.26833 4.23519,4.73352 5.35211,8.23919 2.05761,6.45821 2.21788,8.29033 1.13403,12.96382 -1.93906,8.36104 -6.68174,14.37816 -13.97279,17.72751 -5.01583,2.30416 -13.40514,2.71698 -17.94914,0.88325 z"
   id="path760" /><path
   style="fill:#ff00ff;stroke-width:0.655991"
   d="m 239.98523,196.56219 c -4.8822,-1.61362 -7.6623,-3.38763 -11.02373,-7.03434 -4.47072,-4.85016 -6.17615,-9.33375 -6.2177,-16.34632 -0.0306,-5.16124 0.20219,-6.41739 1.85044,-9.98574 2.31013,-5.00127 7.42918,-10.04331 12.70864,-12.51744 3.2244,-1.51107 4.63502,-1.76848 9.69139,-1.76848 5.34745,0 6.3339,0.20489 10.23673,2.12625 7.36933,3.62791 13.06983,11.18295 14.09804,18.68452 0.50268,3.66743 -0.70925,11.02582 -2.34163,14.21755 -5.28829,10.34001 -18.50563,16.09323 -29.00218,12.624 z"
   id="path762" /><path
   style="fill:#ff00ff;stroke-width:0.655991"
   d="m 206.80261,246.64583 c -19.48268,-9.74679 -18.07884,-37.26253 2.29303,-44.94427 8.4226,-3.17595 17.56734,-1.31935 24.32708,4.93897 8.93311,8.27049 10.90139,18.84784 5.46703,29.37938 -4.40676,8.5401 -11.88163,12.92853 -22.02132,12.92853 -4.93514,0 -5.90804,-0.22255 -10.06582,-2.30261 z"
   id="path764" /><path
   style="fill:#ff00ff;stroke-width:0.655991"
   d="m 152.93224,248.89753 c -7.11444,-1.39817 -14.47279,-7.32775 -17.62766,-14.2049 -1.45775,-3.17767 -1.74019,-4.72984 -1.76286,-9.68784 -0.0231,-5.05313 0.22487,-6.44446 1.72078,-9.65492 2.33255,-5.006 7.16392,-10.03815 11.99673,-12.49527 13.27828,-6.75099 30.18737,0.96335 34.14307,15.5769 3.57572,13.20975 -4.33086,26.67067 -17.71295,30.15626 -4.25484,1.10824 -6.38243,1.16951 -10.75711,0.30977 z"
   id="path766" /><path
   style="fill:#0000ff;stroke-width:0.655991"
   d="m 180.72542,287.54414 c -9.9405,-5.48436 -10.06716,-19.16222 -0.2242,-24.21036 7.14065,-3.66221 14.64388,-1.14553 18.37201,6.1622 2.03778,3.99439 1.50349,10.03799 -1.18248,13.37558 -3.50071,4.34997 -5.71126,5.43899 -10.99443,5.41637 -2.56241,-0.011 -5.24931,-0.34567 -5.9709,-0.74379 z"
   id="path768" /><path
   style="fill:#ff00ff;stroke-width:0.655991"
   d="m 178.49877,285.34051 c -3.71445,-3.35579 -4.85834,-6.17768 -4.53874,-11.19684 0.21805,-3.4244 0.61437,-4.58694 2.25459,-6.61349 3.90152,-4.82045 10.38982,-6.72334 15.55953,-4.5633 3.08259,1.28799 6.79679,5.90481 7.53503,9.3662 1.15691,5.42437 -1.31365,11.18317 -6.03193,14.06023 -1.55575,0.94865 -3.29246,1.25427 -7.13802,1.25613 -4.89457,0.002 -5.17641,-0.0828 -7.64046,-2.30893 z"
   id="path770" /><path
   style="fill:#0000ff;stroke-width:0.655991"
   d="m 116.63754,298.12114 c -1.33361,-0.70433 -3.25239,-2.36568 -4.26394,-3.69189 -1.56044,-2.04585 -1.83918,-3.03117 -1.83918,-6.50141 0,-3.58107 0.25074,-4.40385 2.01462,-6.61097 3.7477,-4.68944 9.06133,-6.05404 13.91929,-3.57464 2.78406,1.42092 4.12493,2.7957 5.63468,5.77714 1.55946,3.07964 1.29624,6.0005 -0.88319,9.80044 -3.20684,5.59127 -9.29253,7.59503 -14.58228,4.80133 z"
   id="path772" /><path
   style="fill:#0000ff;stroke-width:0.655991"
   d="m 93.478665,236.70659 c -4.884315,-2.57495 -7.543893,-6.82967 -7.543893,-12.06852 0,-9.9096 10.463365,-16.79227 18.947978,-12.46375 2.76654,1.41139 6.39183,5.21583 7.33559,7.69812 2.25586,5.93337 -1.06342,13.41406 -7.3977,16.67226 -2.98746,1.53667 -8.582706,1.61654 -11.341975,0.16189 z"
   id="path774" /><path
   style="fill:#0000ff;stroke-width:0.655991"
   d="m 49.45419,183.41185 c -3.047176,-1.85812 -5.013005,-5.03553 -5.361902,-8.66656 -0.384974,-4.00651 0.630992,-6.4991 3.825249,-9.38491 3.933987,-3.55413 8.443479,-4.17724 12.914362,-1.7845 4.917625,2.63183 7.091613,11.25466 3.989033,15.82195 -2.501587,3.68257 -5.40235,5.26391 -9.650731,5.26108 -2.450573,-0.002 -4.354953,-0.41711 -5.716011,-1.24706 z"
   id="path776" /><path
   style="fill:#0000ff;stroke-width:0.655991"
   d="m 92.324046,134.18288 c -4.485224,-2.84445 -6.392729,-6.23631 -6.374867,-11.3356 0.02921,-8.33809 4.244325,-13.0046 12.204512,-13.51146 5.248199,-0.33418 7.268089,0.48321 10.967569,4.43825 4.5793,4.89564 4.90389,11.25776 0.84874,16.63567 -4.37252,5.79879 -11.910333,7.41056 -17.645954,3.77314 z"
   id="path778" /><path
   style="fill:#0000ff;stroke-width:0.655991"
   d="m 182.0374,83.960237 c -2.63947,-1.417927 -6.11524,-4.804555 -7.34756,-7.15913 -2.8979,-5.536979 0.45731,-14.667101 6.56147,-17.854893 2.10114,-1.097282 8.50105,-1.300487 10.99092,-0.348975 2.61809,1.000514 5.8007,3.972286 7.20769,6.730213 4.25009,8.330863 -2.09026,18.845087 -11.73193,19.455093 -2.54356,0.160926 -4.33231,-0.09801 -5.68059,-0.822308 z"
   id="path780" /><path
   style="fill:#0000ff;stroke-width:0.655991"
   d="m 269.94014,134.37205 c -4.99545,-2.63353 -7.54389,-6.81036 -7.54389,-12.36424 0,-12.47869 14.4627,-18.16227 23.08887,-9.0735 3.76427,3.96613 4.76661,9.5276 2.58334,14.3335 -1.28237,2.82278 -5.12793,6.58604 -7.74805,7.58221 -2.47511,0.94103 -8.18755,0.678 -10.38027,-0.47797 z"
   id="path782" /><path
   style="fill:#0000ff;stroke-width:0.655991"
   d="m 313.49653,182.5241 c -2.62999,-1.74777 -5.18093,-6.42909 -5.18093,-9.50771 0,-3.16687 2.25842,-7.10573 5.36416,-9.35552 2.18829,-1.58519 3.36478,-1.95918 6.1631,-1.95918 2.89598,0 3.90942,0.34678 6.23058,2.13197 5.16876,3.97527 6.56568,9.36655 3.7329,14.4068 -3.06541,5.45415 -11.2957,7.61577 -16.30981,4.28364 z"
   id="path784" /><path
   style="fill:#0000ff;stroke-width:0.655991"
   d="m 270.43322,236.41609 c -5.44233,-2.69391 -8.33948,-7.76923 -7.90035,-13.84009 0.21597,-2.98569 0.69257,-4.30356 2.26137,-6.25302 3.49145,-4.33862 5.69934,-5.42199 11.04982,-5.42199 5.35459,0 7.55789,1.08284 11.06141,5.43632 1.64501,2.04408 2.04593,3.21621 2.26228,6.61396 0.31395,4.9305 -1.14285,8.38334 -4.81368,11.40915 -4.31934,3.56036 -9.37329,4.30667 -13.92085,2.05567 z"
   id="path786" /><path
   style="fill:#0000ff;stroke-width:0.655991"
   d=""
   id="path788" /><path
   style="fill:#0000ff;stroke-width:0.655991"
   d="m 248.21935,297.55422 c -3.70035,-2.25641 -5.17482,-5.09245 -5.17482,-9.95339 0,-3.71589 0.25518,-4.64957 1.83788,-6.7246 2.44314,-3.20311 4.90507,-4.37618 9.18437,-4.37618 9.43315,0 14.45755,10.49375 8.6623,18.09171 -0.99977,1.31077 -2.80255,2.79468 -4.00618,3.29759 -3.1384,1.31131 -8.06108,1.15424 -10.50355,-0.33513 z"
   id="path790" /></svg>
